<mxfile host="app.diagrams.net" modified="2024-02-13T04:48:30.122Z" agent="Mozilla/5.0 (Windows NT 10.0; Win64; x64) AppleWebKit/537.36 (KHTML, like Gecko) Chrome/120.0.0.0 Safari/537.36" etag="Dit8JkeVUfVRs-APSJEo" version="23.1.3" type="device">
  <diagram name="Page-1" id="13e1069c-82ec-6db2-03f1-153e76fe0fe0">
    <mxGraphModel dx="1434" dy="746" grid="1" gridSize="10" guides="1" tooltips="1" connect="1" arrows="1" fold="1" page="1" pageScale="1" pageWidth="1100" pageHeight="850" background="none" math="0" shadow="0">
      <root>
        <mxCell id="0" />
        <mxCell id="1" parent="0" />
        <mxCell id="7baba1c4bc27f4b0-2" value="Broker" style="shape=umlLifeline;perimeter=lifelinePerimeter;whiteSpace=wrap;html=1;container=1;collapsible=0;recursiveResize=0;outlineConnect=0;rounded=1;shadow=0;comic=0;labelBackgroundColor=none;strokeWidth=1;fontFamily=Verdana;fontSize=12;align=center;" parent="1" vertex="1">
          <mxGeometry x="240" y="80" width="100" height="580" as="geometry" />
        </mxCell>
        <mxCell id="7baba1c4bc27f4b0-10" value="" style="html=1;points=[];perimeter=orthogonalPerimeter;rounded=0;shadow=0;comic=0;labelBackgroundColor=none;strokeWidth=1;fontFamily=Verdana;fontSize=12;align=center;" parent="7baba1c4bc27f4b0-2" vertex="1">
          <mxGeometry x="45" y="100" width="10" height="340" as="geometry" />
        </mxCell>
        <mxCell id="PTlRN3kUim8A8EuhhCKj-19" value="" style="html=1;points=[];perimeter=orthogonalPerimeter;rounded=0;shadow=0;comic=0;labelBackgroundColor=none;strokeWidth=1;fontFamily=Verdana;fontSize=12;align=center;" vertex="1" parent="7baba1c4bc27f4b0-2">
          <mxGeometry x="50" y="320" width="10" height="40" as="geometry" />
        </mxCell>
        <mxCell id="PTlRN3kUim8A8EuhhCKj-20" value="Update PRT" style="html=1;verticalAlign=bottom;endArrow=block;labelBackgroundColor=none;fontFamily=Verdana;fontSize=12;elbow=vertical;edgeStyle=orthogonalEdgeStyle;curved=1;entryX=1;entryY=1;entryPerimeter=0;exitX=1.038;exitY=0.345;exitPerimeter=0;entryDx=0;entryDy=0;" edge="1" parent="7baba1c4bc27f4b0-2">
          <mxGeometry x="0.0036" relative="1" as="geometry">
            <mxPoint x="60.0033333333335" y="324.78999999999996" as="sourcePoint" />
            <mxPoint x="60" y="355.22" as="targetPoint" />
            <Array as="points">
              <mxPoint x="110" y="325.22" />
              <mxPoint x="110" y="355.22" />
            </Array>
            <mxPoint as="offset" />
          </mxGeometry>
        </mxCell>
        <mxCell id="7baba1c4bc27f4b0-3" value="Broker" style="shape=umlLifeline;perimeter=lifelinePerimeter;whiteSpace=wrap;html=1;container=1;collapsible=0;recursiveResize=0;outlineConnect=0;rounded=1;shadow=0;comic=0;labelBackgroundColor=none;strokeWidth=1;fontFamily=Verdana;fontSize=12;align=center;" parent="1" vertex="1">
          <mxGeometry x="390" y="80" width="100" height="580" as="geometry" />
        </mxCell>
        <mxCell id="7baba1c4bc27f4b0-13" value="" style="html=1;points=[];perimeter=orthogonalPerimeter;rounded=0;shadow=0;comic=0;labelBackgroundColor=none;strokeWidth=1;fontFamily=Verdana;fontSize=12;align=center;" parent="7baba1c4bc27f4b0-3" vertex="1">
          <mxGeometry x="45" y="120" width="10" height="380" as="geometry" />
        </mxCell>
        <mxCell id="7baba1c4bc27f4b0-14" value="Send Advertisement&lt;br&gt;(RPC)" style="html=1;verticalAlign=bottom;endArrow=block;entryX=0;entryY=0;labelBackgroundColor=none;fontFamily=Verdana;fontSize=12;edgeStyle=elbowEdgeStyle;elbow=vertical;" parent="7baba1c4bc27f4b0-3" edge="1">
          <mxGeometry relative="1" as="geometry">
            <mxPoint x="-95" y="180" as="sourcePoint" />
            <mxPoint x="45" y="180.00000000000023" as="targetPoint" />
          </mxGeometry>
        </mxCell>
        <mxCell id="PTlRN3kUim8A8EuhhCKj-13" value="" style="html=1;points=[];perimeter=orthogonalPerimeter;rounded=0;shadow=0;comic=0;labelBackgroundColor=none;strokeWidth=1;fontFamily=Verdana;fontSize=12;align=center;" vertex="1" parent="7baba1c4bc27f4b0-3">
          <mxGeometry x="50" y="190" width="10" height="40" as="geometry" />
        </mxCell>
        <mxCell id="PTlRN3kUim8A8EuhhCKj-14" value="Update SRT" style="html=1;verticalAlign=bottom;endArrow=block;labelBackgroundColor=none;fontFamily=Verdana;fontSize=12;elbow=vertical;edgeStyle=orthogonalEdgeStyle;curved=1;entryX=1;entryY=1;entryPerimeter=0;exitX=1.038;exitY=0.345;exitPerimeter=0;entryDx=0;entryDy=0;" edge="1" parent="7baba1c4bc27f4b0-3">
          <mxGeometry x="0.0036" relative="1" as="geometry">
            <mxPoint x="60.0033333333335" y="194.78999999999996" as="sourcePoint" />
            <mxPoint x="60" y="225.22000000000003" as="targetPoint" />
            <Array as="points">
              <mxPoint x="110" y="195.22000000000003" />
              <mxPoint x="110" y="225.22000000000003" />
            </Array>
            <mxPoint as="offset" />
          </mxGeometry>
        </mxCell>
        <mxCell id="PTlRN3kUim8A8EuhhCKj-15" value="" style="html=1;points=[];perimeter=orthogonalPerimeter;rounded=0;shadow=0;comic=0;labelBackgroundColor=none;strokeWidth=1;fontFamily=Verdana;fontSize=12;align=center;" vertex="1" parent="7baba1c4bc27f4b0-3">
          <mxGeometry x="50" y="250" width="10" height="40" as="geometry" />
        </mxCell>
        <mxCell id="PTlRN3kUim8A8EuhhCKj-16" value="Update PRT" style="html=1;verticalAlign=bottom;endArrow=block;labelBackgroundColor=none;fontFamily=Verdana;fontSize=12;elbow=vertical;edgeStyle=orthogonalEdgeStyle;curved=1;entryX=1;entryY=1;entryPerimeter=0;exitX=1.038;exitY=0.345;exitPerimeter=0;entryDx=0;entryDy=0;" edge="1" parent="7baba1c4bc27f4b0-3">
          <mxGeometry x="0.0036" relative="1" as="geometry">
            <mxPoint x="60.0033333333335" y="254.78999999999996" as="sourcePoint" />
            <mxPoint x="60" y="285.22" as="targetPoint" />
            <Array as="points">
              <mxPoint x="110" y="255.22000000000003" />
              <mxPoint x="110" y="285.22" />
            </Array>
            <mxPoint as="offset" />
          </mxGeometry>
        </mxCell>
        <mxCell id="PTlRN3kUim8A8EuhhCKj-23" value="" style="html=1;points=[];perimeter=orthogonalPerimeter;rounded=0;shadow=0;comic=0;labelBackgroundColor=none;strokeWidth=1;fontFamily=Verdana;fontSize=12;align=center;" vertex="1" parent="7baba1c4bc27f4b0-3">
          <mxGeometry x="50" y="410" width="10" height="40" as="geometry" />
        </mxCell>
        <mxCell id="PTlRN3kUim8A8EuhhCKj-24" value="Update PRT" style="html=1;verticalAlign=bottom;endArrow=block;labelBackgroundColor=none;fontFamily=Verdana;fontSize=12;elbow=vertical;edgeStyle=orthogonalEdgeStyle;curved=1;entryX=1;entryY=1;entryPerimeter=0;exitX=1.038;exitY=0.345;exitPerimeter=0;entryDx=0;entryDy=0;" edge="1" parent="7baba1c4bc27f4b0-3">
          <mxGeometry x="0.0036" relative="1" as="geometry">
            <mxPoint x="60.0033333333335" y="414.78999999999996" as="sourcePoint" />
            <mxPoint x="60" y="445.22" as="targetPoint" />
            <Array as="points">
              <mxPoint x="110" y="415.22" />
              <mxPoint x="110" y="445.22" />
            </Array>
            <mxPoint as="offset" />
          </mxGeometry>
        </mxCell>
        <mxCell id="PTlRN3kUim8A8EuhhCKj-31" value="Matching Engine" style="text;html=1;align=center;verticalAlign=middle;whiteSpace=wrap;rounded=0;" vertex="1" parent="7baba1c4bc27f4b0-3">
          <mxGeometry x="60" y="390" width="100" height="30" as="geometry" />
        </mxCell>
        <mxCell id="PTlRN3kUim8A8EuhhCKj-10" value="Notify&lt;br&gt;(RPC)" style="html=1;verticalAlign=bottom;endArrow=block;labelBackgroundColor=none;fontFamily=Verdana;fontSize=12;edgeStyle=elbowEdgeStyle;elbow=vertical;entryX=0;entryY=1;entryDx=0;entryDy=0;entryPerimeter=0;" edge="1" parent="7baba1c4bc27f4b0-3">
          <mxGeometry relative="1" as="geometry">
            <mxPoint x="55" y="480" as="sourcePoint" />
            <Array as="points">
              <mxPoint x="75" y="480" />
            </Array>
            <mxPoint x="194" y="480" as="targetPoint" />
          </mxGeometry>
        </mxCell>
        <mxCell id="7baba1c4bc27f4b0-21" value="Response" style="html=1;verticalAlign=bottom;endArrow=open;dashed=1;endSize=8;labelBackgroundColor=none;fontFamily=Verdana;fontSize=12;edgeStyle=elbowEdgeStyle;elbow=vertical;" parent="7baba1c4bc27f4b0-3" source="7baba1c4bc27f4b0-5" edge="1">
          <mxGeometry relative="1" as="geometry">
            <mxPoint x="55" y="500" as="targetPoint" />
            <Array as="points">
              <mxPoint x="115" y="500" />
              <mxPoint x="145" y="500" />
            </Array>
            <mxPoint x="180" y="500" as="sourcePoint" />
          </mxGeometry>
        </mxCell>
        <mxCell id="7baba1c4bc27f4b0-5" value="Subscriber" style="shape=umlLifeline;perimeter=lifelinePerimeter;whiteSpace=wrap;html=1;container=1;collapsible=0;recursiveResize=0;outlineConnect=0;rounded=1;shadow=0;comic=0;labelBackgroundColor=none;strokeWidth=1;fontFamily=Verdana;fontSize=12;align=center;" parent="1" vertex="1">
          <mxGeometry x="540" y="80" width="100" height="580" as="geometry" />
        </mxCell>
        <mxCell id="7baba1c4bc27f4b0-19" value="" style="html=1;points=[];perimeter=orthogonalPerimeter;rounded=0;shadow=0;comic=0;labelBackgroundColor=none;strokeWidth=1;fontFamily=Verdana;fontSize=12;align=center;" parent="7baba1c4bc27f4b0-5" vertex="1">
          <mxGeometry x="45" y="170" width="10" height="330" as="geometry" />
        </mxCell>
        <mxCell id="7baba1c4bc27f4b0-8" value="Publisher" style="shape=umlLifeline;perimeter=lifelinePerimeter;whiteSpace=wrap;html=1;container=1;collapsible=0;recursiveResize=0;outlineConnect=0;rounded=1;shadow=0;comic=0;labelBackgroundColor=none;strokeWidth=1;fontFamily=Verdana;fontSize=12;align=center;" parent="1" vertex="1">
          <mxGeometry x="90" y="80" width="100" height="580" as="geometry" />
        </mxCell>
        <mxCell id="7baba1c4bc27f4b0-9" value="" style="html=1;points=[];perimeter=orthogonalPerimeter;rounded=0;shadow=0;comic=0;labelBackgroundColor=none;strokeWidth=1;fontFamily=Verdana;fontSize=12;align=center;" parent="7baba1c4bc27f4b0-8" vertex="1">
          <mxGeometry x="45" y="100" width="10" height="440" as="geometry" />
        </mxCell>
        <mxCell id="7baba1c4bc27f4b0-11" value="Advertise" style="html=1;verticalAlign=bottom;endArrow=block;entryX=0;entryY=0;labelBackgroundColor=none;fontFamily=Verdana;fontSize=12;edgeStyle=elbowEdgeStyle;elbow=vertical;" parent="1" source="7baba1c4bc27f4b0-9" target="7baba1c4bc27f4b0-10" edge="1">
          <mxGeometry relative="1" as="geometry">
            <mxPoint x="220" y="190" as="sourcePoint" />
            <mxPoint as="offset" />
          </mxGeometry>
        </mxCell>
        <mxCell id="7baba1c4bc27f4b0-34" value="" style="html=1;points=[];perimeter=orthogonalPerimeter;rounded=0;shadow=0;comic=0;labelBackgroundColor=none;strokeWidth=1;fontFamily=Verdana;fontSize=12;align=center;" parent="1" vertex="1">
          <mxGeometry x="940" y="237.9" width="10" height="70" as="geometry" />
        </mxCell>
        <mxCell id="7baba1c4bc27f4b0-35" value="dispatch" style="html=1;verticalAlign=bottom;endArrow=block;labelBackgroundColor=none;fontFamily=Verdana;fontSize=12;elbow=vertical;edgeStyle=orthogonalEdgeStyle;curved=1;entryX=1;entryY=0.286;entryPerimeter=0;exitX=1.038;exitY=0.345;exitPerimeter=0;" parent="1" target="7baba1c4bc27f4b0-34" edge="1">
          <mxGeometry x="-0.0036" relative="1" as="geometry">
            <mxPoint x="945.3800000000001" y="219.99999999999991" as="sourcePoint" />
            <mxPoint x="945" y="167.9" as="targetPoint" />
            <Array as="points">
              <mxPoint x="1000" y="219.9" />
              <mxPoint x="1000" y="257.9" />
            </Array>
            <mxPoint as="offset" />
          </mxGeometry>
        </mxCell>
        <mxCell id="7baba1c4bc27f4b0-36" value="dispatch" style="html=1;verticalAlign=bottom;endArrow=block;labelBackgroundColor=none;fontFamily=Verdana;fontSize=12;elbow=vertical;edgeStyle=orthogonalEdgeStyle;curved=1;exitX=1.066;exitY=0.713;exitPerimeter=0;" parent="1" source="7baba1c4bc27f4b0-34" edge="1">
          <mxGeometry relative="1" as="geometry">
            <mxPoint x="960.3333333333333" y="287.9" as="sourcePoint" />
            <mxPoint x="945" y="326.9" as="targetPoint" />
            <Array as="points">
              <mxPoint x="1000" y="287.9" />
              <mxPoint x="1000" y="326.9" />
            </Array>
          </mxGeometry>
        </mxCell>
        <mxCell id="7baba1c4bc27f4b0-39" value="Update SRT" style="html=1;verticalAlign=bottom;endArrow=block;labelBackgroundColor=none;fontFamily=Verdana;fontSize=12;elbow=vertical;edgeStyle=orthogonalEdgeStyle;curved=1;entryX=1;entryY=1;entryPerimeter=0;exitX=1.038;exitY=0.345;exitPerimeter=0;entryDx=0;entryDy=0;" parent="1" edge="1">
          <mxGeometry x="0.0036" relative="1" as="geometry">
            <mxPoint x="300.0033333333335" y="194.57" as="sourcePoint" />
            <mxPoint x="300" y="225" as="targetPoint" />
            <Array as="points">
              <mxPoint x="350" y="195" />
              <mxPoint x="350" y="225" />
            </Array>
            <mxPoint as="offset" />
          </mxGeometry>
        </mxCell>
        <mxCell id="7baba1c4bc27f4b0-40" value="Note" style="shape=note;whiteSpace=wrap;html=1;size=14;verticalAlign=top;align=left;spacingTop=-6;rounded=0;shadow=0;comic=0;labelBackgroundColor=none;strokeWidth=1;fontFamily=Verdana;fontSize=12" parent="1" vertex="1">
          <mxGeometry x="90" y="30" width="100" height="35" as="geometry" />
        </mxCell>
        <mxCell id="7baba1c4bc27f4b0-41" value="Note" style="shape=note;whiteSpace=wrap;html=1;size=14;verticalAlign=top;align=left;spacingTop=-6;rounded=0;shadow=0;comic=0;labelBackgroundColor=none;strokeWidth=1;fontFamily=Verdana;fontSize=12" parent="1" vertex="1">
          <mxGeometry x="240" y="30" width="100" height="35" as="geometry" />
        </mxCell>
        <mxCell id="7baba1c4bc27f4b0-42" value="Note" style="shape=note;whiteSpace=wrap;html=1;size=14;verticalAlign=top;align=left;spacingTop=-6;rounded=0;shadow=0;comic=0;labelBackgroundColor=none;strokeWidth=1;fontFamily=Verdana;fontSize=12" parent="1" vertex="1">
          <mxGeometry x="390" y="30" width="100" height="35" as="geometry" />
        </mxCell>
        <mxCell id="7baba1c4bc27f4b0-44" value="Note" style="shape=note;whiteSpace=wrap;html=1;size=14;verticalAlign=top;align=left;spacingTop=-6;rounded=0;shadow=0;comic=0;labelBackgroundColor=none;strokeWidth=1;fontFamily=Verdana;fontSize=12" parent="1" vertex="1">
          <mxGeometry x="540" y="30" width="100" height="35" as="geometry" />
        </mxCell>
        <mxCell id="7baba1c4bc27f4b0-20" value="Subscribe" style="html=1;verticalAlign=bottom;endArrow=block;labelBackgroundColor=none;fontFamily=Verdana;fontSize=12;edgeStyle=elbowEdgeStyle;elbow=vertical;" parent="1" edge="1">
          <mxGeometry x="0.4882" relative="1" as="geometry">
            <mxPoint x="445" y="320" as="sourcePoint" />
            <mxPoint x="445" y="320" as="targetPoint" />
            <Array as="points">
              <mxPoint x="590" y="320" />
              <mxPoint x="680" y="350" />
            </Array>
            <mxPoint as="offset" />
          </mxGeometry>
        </mxCell>
        <mxCell id="PTlRN3kUim8A8EuhhCKj-7" value="Send Publication&lt;br style=&quot;border-color: var(--border-color);&quot;&gt;(RPC)" style="html=1;verticalAlign=bottom;endArrow=block;labelBackgroundColor=none;fontFamily=Verdana;fontSize=12;edgeStyle=elbowEdgeStyle;elbow=vertical;exitX=0.9;exitY=0.696;exitDx=0;exitDy=0;exitPerimeter=0;" edge="1" parent="1">
          <mxGeometry relative="1" as="geometry">
            <mxPoint x="294" y="475.0799999999999" as="sourcePoint" />
            <mxPoint x="435" y="475" as="targetPoint" />
            <Array as="points" />
          </mxGeometry>
        </mxCell>
        <mxCell id="PTlRN3kUim8A8EuhhCKj-5" value="Send Subscription&lt;br style=&quot;border-color: var(--border-color);&quot;&gt;(RPC)" style="html=1;verticalAlign=bottom;endArrow=block;labelBackgroundColor=none;fontFamily=Verdana;fontSize=12;edgeStyle=elbowEdgeStyle;elbow=vertical;" edge="1" parent="1">
          <mxGeometry x="0.5161" relative="1" as="geometry">
            <mxPoint x="295" y="380" as="sourcePoint" />
            <mxPoint x="295" y="380" as="targetPoint" />
            <Array as="points">
              <mxPoint x="440" y="380" />
              <mxPoint x="530" y="410" />
            </Array>
            <mxPoint as="offset" />
          </mxGeometry>
        </mxCell>
        <mxCell id="PTlRN3kUim8A8EuhhCKj-6" value="Publish" style="html=1;verticalAlign=bottom;endArrow=block;entryX=0;entryY=0;labelBackgroundColor=none;fontFamily=Verdana;fontSize=12;edgeStyle=elbowEdgeStyle;elbow=vertical;exitX=1;exitY=0.591;exitDx=0;exitDy=0;exitPerimeter=0;" edge="1" parent="1">
          <mxGeometry relative="1" as="geometry">
            <mxPoint x="145" y="450.03999999999996" as="sourcePoint" />
            <mxPoint x="285" y="450" as="targetPoint" />
            <mxPoint as="offset" />
          </mxGeometry>
        </mxCell>
        <mxCell id="PTlRN3kUim8A8EuhhCKj-27" value="Matching Engine" style="text;html=1;align=center;verticalAlign=middle;whiteSpace=wrap;rounded=0;" vertex="1" parent="1">
          <mxGeometry x="300" y="170" width="100" height="30" as="geometry" />
        </mxCell>
        <mxCell id="7baba1c4bc27f4b0-37" value="" style="html=1;points=[];perimeter=orthogonalPerimeter;rounded=0;shadow=0;comic=0;labelBackgroundColor=none;strokeWidth=1;fontFamily=Verdana;fontSize=12;align=center;" parent="1" vertex="1">
          <mxGeometry x="290" y="190" width="10" height="40" as="geometry" />
        </mxCell>
        <mxCell id="PTlRN3kUim8A8EuhhCKj-28" value="Matching Engine" style="text;html=1;align=center;verticalAlign=middle;whiteSpace=wrap;rounded=0;" vertex="1" parent="1">
          <mxGeometry x="450" y="250" width="100" height="30" as="geometry" />
        </mxCell>
        <mxCell id="PTlRN3kUim8A8EuhhCKj-30" value="Matching Engine" style="text;html=1;align=center;verticalAlign=middle;whiteSpace=wrap;rounded=0;" vertex="1" parent="1">
          <mxGeometry x="300" y="380" width="100" height="30" as="geometry" />
        </mxCell>
      </root>
    </mxGraphModel>
  </diagram>
</mxfile>
